<svg xmlns="http://www.w3.org/2000/svg" viewBox="0 0 800 400">
  <rect width="800" height="400" fill="#1a1b26"/>
  <text x="400" y="35" text-anchor="middle" fill="#7aa2f7" font-size="20">Intelligent Code Review</text>
  
  <rect x="50" y="80" width="140" height="60" rx="8" fill="#f7768e" opacity="0.2" stroke="#f7768e"/>
  <text x="120" y="105" text-anchor="middle" fill="#f7768e" font-size="12">Code Change</text>
  <text x="120" y="120" text-anchor="middle" fill="#f7768e" font-size="10">Diff Detected</text>
  
  <rect x="230" y="80" width="140" height="60" rx="8" fill="#e0af68" opacity="0.2" stroke="#e0af68"/>
  <text x="300" y="105" text-anchor="middle" fill="#e0af68" font-size="12">MiMo Analysis</text>
  <text x="300" y="120" text-anchor="middle" fill="#e0af68" font-size="10">Impact Assessment</text>
  
  <rect x="410" y="80" width="140" height="60" rx="8" fill="#9ece6a" opacity="0.2" stroke="#9ece6a"/>
  <text x="480" y="105" text-anchor="middle" fill="#9ece6a" font-size="12">Test Generation</text>
  <text x="480" y="120" text-anchor="middle" fill="#9ece6a" font-size="10">Type Safety Check</text>
  
  <rect x="590" y="80" width="140" height="60" rx="8" fill="#7aa2f7" opacity="0.2" stroke="#7aa2f7"/>
  <text x="660" y="105" text-anchor="middle" fill="#7aa2f7" font-size="12">PR Approval</text>
  <text x="660" y="120" text-anchor="middle" fill="#7aa2f7" font-size="10">Auto-Merge</text>
  
  <line x1="190" y1="110" x2="230" y2="110" stroke="#7aa2f7" stroke-width="2"/>
  <line x1="370" y1="110" x2="410" y2="110" stroke="#7aa2f7" stroke-width="2"/>
  <line x1="550" y1="110" x2="590" y2="110" stroke="#7aa2f7" stroke-width="2"/>
  
  <text x="400" y="200" text-anchor="middle" fill="#565f89" font-size="14">Review Output</text>
  
  <rect x="100" y="230" width="600" height="120" rx="8" fill="#16161e" stroke="#30363d"/>
  <text x="400" y="255" text-anchor="middle" fill="#9ece6a" font-size="12">Code Review Report</text>
  <text x="400" y="275" text-anchor="middle" fill="#565f89" font-size="10">• Consider using pathlib.Path instead of os.path for cleaner path handling</text>
  <text x="400" y="295" text-anchor="middle" fill="#565f89" font-size="10">• Use enumerate() instead of range(len()) for iteration</text>
  <text x="400" y="315" text-anchor="middle" fill="#565f89" font-size="10">• Function 'analyze_data' exceeds 50 lines - consider refactoring</text>
  <text x="400" y="335" text-anchor="middle" fill="#3fb950" font-size="10">Type safety: 100% • Tests generated: 15 • Issues caught: 12</text>
</svg>